# File created by Blade
# Date/Time:  Tue Jan 27 19:32:37 2015
# Frame Rate: 120.000 fps
#------------------------------------------------------
:FULLY-SPECIFIED
:DEGREES
3389
root 2.975407 32.232326 0.786989 -3.784659 -11.723922 -1.388511
Spine 2.687342 -20.020608 -1.585226
Head 15.479438 0.493068 2.592876
LeftShoulder -12.555312 2.018509 27.497016
LeftArm -4.892710 39.196024 -104.418919
LeftForeArm 4.700892 -0.000000 14.612981
LeftHand 9.303132 0.000000 -4.189123
LeftHandThumb1 -26.253704 0.000000 33.147579
RightShoulder -30.066681 -27.810160 -33.758933
RightArm -27.675164 64.268469 35.506405
RightForeArm 10.252377 0.000000 117.838602
RightHand 26.949576 -0.000000 -31.975254
RightHandThumb1 -24.326973 -0.000000 -32.862282
LeftUpLeg 15.985481 14.745792 2.875570
LeftLeg -0.671381 -0.000000 0.000000
LeftFoot -20.864162 16.247263 -24.883787
LeftToeBase 16.933640 -0.000000 -0.000000
RightUpLeg 9.053596 2.846368 4.616724
RightLeg 2.542834 -0.000000 -0.000000
RightFoot -13.120944 -13.557809 13.773453
RightToeBase 11.717945 -0.000000 -0.000000
3390
root 2.966237 32.233374 0.772256 -3.688479 -12.148624 -1.404453
Spine 2.727848 -20.173708 -1.591695
Head 15.518060 1.190180 2.840314
LeftShoulder -12.596988 2.071378 27.543398
LeftArm -5.013339 38.752277 -104.668847
LeftForeArm 4.995524 -0.000000 14.480324
LeftHand 9.600724 -0.000000 -4.415148
LeftHandThumb1 -26.253704 0.000000 33.147579
RightShoulder -29.690555 -26.918541 -34.156508
RightArm -31.027868 64.259831 32.442962
RightForeArm 11.415599 -0.000000 117.511006
RightHand 26.960710 -0.000000 -32.503444
RightHandThumb1 -24.326973 -0.000000 -32.862282
LeftUpLeg 15.969119 15.038311 2.896409
LeftLeg -0.719723 -0.000000 0.000000
LeftFoot -20.915277 16.383413 -24.919497
LeftToeBase 17.072467 -0.000000 -0.000000
RightUpLeg 8.876758 3.244410 4.666367
RightLeg 2.601021 -0.000000 -0.000000
RightFoot -13.078489 -13.534977 13.754934
RightToeBase 11.723135 -0.000000 -0.000000
3391
root 2.954316 32.234787 0.758061 -3.635750 -12.566951 -1.447987
Spine 2.817227 -20.253681 -1.590540
Head 15.586797 1.836509 3.078051
LeftShoulder -12.529805 2.140233 27.586132
LeftArm -5.083736 38.635663 -104.875437
LeftForeArm 4.946384 -0.000000 14.416851
LeftHand 9.707341 -0.000000 -4.485607
LeftHandThumb1 -26.253704 0.000000 33.147579
RightShoulder -29.821827 -26.885183 -34.222526
RightArm -32.081101 64.752005 31.712769
RightForeArm 12.292677 -0.000000 117.094308
RightHand 27.085734 -0.000000 -32.954063
RightHandThumb1 -24.326973 -0.000000 -32.862282
LeftUpLeg 16.005892 15.323320 2.963154
LeftLeg -0.766284 -0.000000 0.000000
LeftFoot -20.946257 16.481672 -24.979851
LeftToeBase 17.111575 -0.000000 -0.000000
RightUpLeg 8.753296 3.531670 4.734501
RightLeg 2.651159 -0.000000 -0.000000
RightFoot -12.981781 -13.457984 13.654841
RightToeBase 11.722140 -0.000000 -0.000000
3392
root 2.942029 32.237290 0.744096 -3.564173 -12.974428 -1.496440
Spine 2.885309 -20.397337 -1.577096
Head 15.669683 2.519488 3.308044
LeftShoulder -12.520567 2.150974 27.612802
LeftArm -5.319730 38.524105 -105.131373
LeftForeArm 4.905003 0.000000 14.491324
LeftHand 9.815273 0.000000 -4.757785
LeftHandThumb1 -26.253704 0.000000 33.147579
RightShoulder -30.039382 -26.974834 -34.219012
RightArm -32.435508 65.365047 31.628393
RightForeArm 13.108240 -0.000000 116.684535
RightHand 27.257745 -0.000000 -33.101518
RightHandThumb1 -24.326973 -0.000000 -32.862282
LeftUpLeg 16.022933 15.571800 3.024734
LeftLeg -0.813019 -0.000000 0.000000
LeftFoot -20.980216 16.578592 -25.073138
LeftToeBase 17.070946 -0.000000 -0.000000
RightUpLeg 8.639254 3.749521 4.793844
RightLeg 2.644034 -0.000000 -0.000000
RightFoot -12.815430 -13.310226 13.537154
RightToeBase 11.663800 -0.000000 -0.000000
3393
root 2.929433 32.238857 0.729645 -3.478946 -13.421966 -1.543575
Spine 2.905832 -20.541223 -1.585005
Head 15.842055 3.213682 3.601437
LeftShoulder -12.478243 2.234965 27.672316
LeftArm -5.485999 38.457156 -105.375836
LeftForeArm 4.915044 -0.000000 14.538410
LeftHand 9.774033 0.000000 -4.972716
LeftHandThumb1 -26.253704 0.000000 33.147579
RightShoulder -30.023129 -26.905330 -34.261989
RightArm -33.412990 65.838023 30.892636
RightForeArm 13.709133 0.000000 116.329867
RightHand 27.333621 0.000000 -32.682085
RightHandThumb1 -24.326973 -0.000000 -32.862282
LeftUpLeg 16.036321 15.816529 3.072457
LeftLeg -0.870186 -0.000000 0.000000
LeftFoot -21.041484 16.719488 -25.174333
LeftToeBase 17.035942 -0.000000 -0.000000
RightUpLeg 8.490890 4.055271 4.861465
RightLeg 2.678993 -0.000000 -0.000000
RightFoot -12.716459 -13.211050 13.472113
RightToeBase 11.746279 -0.000000 -0.000000
